<svg xmlns="http://www.w3.org/2000/svg" viewBox="0 0 34.51 32.67"><defs><style>.cls-1{fill:#fff;}.cls-2{fill:#ef4136;}.cls-3{fill:#9b9b9b;}</style></defs><title>logo_dark</title><rect class="cls-1" x="2.22" y="3.68" width="0.46" height="4.6"/><rect class="cls-1" x="16.95" y="3.68" width="0.46" height="4.6"/><rect class="cls-1" x="31.68" y="3.68" width="0.46" height="4.6"/><rect class="cls-1" x="24.32" y="10.59" width="0.46" height="4.6"/><rect class="cls-1" x="9.59" y="10.59" width="0.46" height="4.6"/><rect class="cls-1" x="9.59" y="17.49" width="0.46" height="4.6"/><rect class="cls-1" x="24.32" y="17.49" width="0.46" height="4.6"/><rect class="cls-1" x="16.95" y="24.63" width="0.46" height="4.6"/><rect class="cls-1" x="10.97" y="23.02" width="4.6" height="0.46"/><rect class="cls-1" x="19.03" y="23.02" width="4.6" height="0.46"/><rect class="cls-1" x="19.03" y="9.21" width="4.6" height="0.46"/><rect class="cls-1" x="25.93" y="9.21" width="4.6" height="0.46"/><rect class="cls-1" x="11.2" y="9.21" width="4.6" height="0.46"/><rect class="cls-1" x="4.53" y="9.21" width="4.6" height="0.46"/><path class="cls-1" d="M85.34,54.39a2.53,2.53,0,1,1-2.53-2.53A2.53,2.53,0,0,1,85.34,54.39Z" transform="translate(-80.29 -51.86)"/><path class="cls-1" d="M100.07,54.39a2.53,2.53,0,1,1-2.53-2.53A2.53,2.53,0,0,1,100.07,54.39Z" transform="translate(-80.29 -51.86)"/><path class="cls-1" d="M114.79,54.39a2.53,2.53,0,1,1-2.52-2.53A2.52,2.52,0,0,1,114.79,54.39Z" transform="translate(-80.29 -51.86)"/><path class="cls-1" d="M85.34,61.29a2.53,2.53,0,1,1-2.53-2.52A2.53,2.53,0,0,1,85.34,61.29Z" transform="translate(-80.29 -51.86)"/><path class="cls-1" d="M92.7,61.29a2.53,2.53,0,1,1-2.52-2.52A2.52,2.52,0,0,1,92.7,61.29Z" transform="translate(-80.29 -51.86)"/><path class="cls-1" d="M100.07,61.29a2.53,2.53,0,1,1-2.53-2.52A2.53,2.53,0,0,1,100.07,61.29Z" transform="translate(-80.29 -51.86)"/><path class="cls-1" d="M107.43,61.29a2.53,2.53,0,1,1-2.53-2.52A2.53,2.53,0,0,1,107.43,61.29Z" transform="translate(-80.29 -51.86)"/><path class="cls-1" d="M114.79,61.29a2.53,2.53,0,1,1-2.52-2.52A2.52,2.52,0,0,1,114.79,61.29Z" transform="translate(-80.29 -51.86)"/><path class="cls-1" d="M92.7,68.2a2.53,2.53,0,1,1-2.52-2.53A2.53,2.53,0,0,1,92.7,68.2Z" transform="translate(-80.29 -51.86)"/><path class="cls-1" d="M107.43,68.2a2.53,2.53,0,1,1-2.53-2.53A2.53,2.53,0,0,1,107.43,68.2Z" transform="translate(-80.29 -51.86)"/><path class="cls-1" d="M92.7,75.1a2.53,2.53,0,1,1-2.52-2.52A2.52,2.52,0,0,1,92.7,75.1Z" transform="translate(-80.29 -51.86)"/><path class="cls-1" d="M100.07,75.1a2.53,2.53,0,1,1-2.53-2.52A2.53,2.53,0,0,1,100.07,75.1Z" transform="translate(-80.29 -51.86)"/><path class="cls-1" d="M107.43,75.1a2.53,2.53,0,1,1-2.53-2.52A2.53,2.53,0,0,1,107.43,75.1Z" transform="translate(-80.29 -51.86)"/><path class="cls-2" d="M100.07,82a2.53,2.53,0,1,1-2.53-2.53A2.53,2.53,0,0,1,100.07,82Z" transform="translate(-80.29 -51.86)"/><path class="cls-3" d="M92.7,54.39a2.53,2.53,0,1,1-2.52-2.53A2.52,2.52,0,0,1,92.7,54.39Z" transform="translate(-80.29 -51.86)"/><path class="cls-3" d="M107.43,54.39a2.53,2.53,0,1,1-2.53-2.53A2.53,2.53,0,0,1,107.43,54.39Z" transform="translate(-80.29 -51.86)"/><path class="cls-3" d="M85.34,68.2a2.53,2.53,0,1,1-2.53-2.53A2.53,2.53,0,0,1,85.34,68.2Z" transform="translate(-80.29 -51.86)"/><path class="cls-3" d="M100.07,68.2a2.53,2.53,0,1,1-2.53-2.53A2.53,2.53,0,0,1,100.07,68.2Z" transform="translate(-80.29 -51.86)"/><path class="cls-3" d="M114.79,68.2a2.53,2.53,0,1,1-2.52-2.53A2.53,2.53,0,0,1,114.79,68.2Z" transform="translate(-80.29 -51.86)"/><path class="cls-3" d="M85.34,75.1a2.53,2.53,0,1,1-2.53-2.52A2.53,2.53,0,0,1,85.34,75.1Z" transform="translate(-80.29 -51.86)"/><path class="cls-3" d="M114.79,75.1a2.53,2.53,0,1,1-2.52-2.52A2.52,2.52,0,0,1,114.79,75.1Z" transform="translate(-80.29 -51.86)"/><path class="cls-3" d="M85.34,82a2.53,2.53,0,1,1-2.53-2.53A2.53,2.53,0,0,1,85.34,82Z" transform="translate(-80.29 -51.86)"/><path class="cls-3" d="M92.7,82a2.53,2.53,0,1,1-2.52-2.53A2.53,2.53,0,0,1,92.7,82Z" transform="translate(-80.29 -51.86)"/><path class="cls-3" d="M107.43,82a2.53,2.53,0,1,1-2.53-2.53A2.53,2.53,0,0,1,107.43,82Z" transform="translate(-80.29 -51.86)"/><path class="cls-3" d="M114.79,82a2.53,2.53,0,1,1-2.52-2.53A2.53,2.53,0,0,1,114.79,82Z" transform="translate(-80.29 -51.86)"/></svg>