<svg xmlns="http://www.w3.org/2000/svg" viewBox="0 0 132.12 32.67"><defs><style>.cls-1{fill:#fff;}.cls-2{fill:#ef4136;}.cls-3{fill:#9b9b9b;}</style></defs><title>logo_pando_dark</title><path class="cls-1" d="M123.22,58.83h7.43c3.93,0,5.94,2.51,5.94,5.66,0,3.46-2.12,6-6.29,6h-3.43v7.06h-3.65Zm3.65,8.42h3.43a2.39,2.39,0,0,0,2.59-2.62,2.3,2.3,0,0,0-2.51-2.5h-3.51Z" transform="translate(-80.29 -51.86)"/><path class="cls-1" d="M142.47,58.83h4.74l6.38,18.74h-3.87l-1.39-4.28h-7.19l-1.42,4.28H136Zm4.85,11.38-2.56-7.89-2.61,7.89Z" transform="translate(-80.29 -51.86)"/><path class="cls-1" d="M155.44,58.83h5.14l6.62,13.54V58.83h3.65V77.57h-4.79l-7-14.22V77.57h-3.65Z" transform="translate(-80.29 -51.86)"/><path class="cls-1" d="M174.2,58.83h7.24c6.13,0,9.43,4,9.43,9.21,0,5.39-3.38,9.53-9.7,9.53h-7Zm3.65,15.44h3.32c4.06,0,6-2.72,6-6.13s-1.88-6-5.88-6h-3.43Z" transform="translate(-80.29 -51.86)"/><path class="cls-1" d="M212.41,68.14c0,5.26-3.51,9.92-10.13,9.92s-10.13-4.66-10.13-9.92,3.51-9.8,10.13-9.8S212.41,62.94,212.41,68.14Zm-16.53,0c0,3.35,2.2,6.57,6.4,6.57a6.51,6.51,0,1,0-6.4-6.57Z" transform="translate(-80.29 -51.86)"/><rect class="cls-1" x="2.22" y="3.68" width="0.46" height="4.6"/><rect class="cls-1" x="16.95" y="3.68" width="0.46" height="4.6"/><rect class="cls-1" x="31.68" y="3.68" width="0.46" height="4.6"/><rect class="cls-1" x="24.32" y="10.59" width="0.46" height="4.6"/><rect class="cls-1" x="9.59" y="10.59" width="0.46" height="4.6"/><rect class="cls-1" x="9.59" y="17.49" width="0.46" height="4.6"/><rect class="cls-1" x="24.32" y="17.49" width="0.46" height="4.6"/><rect class="cls-1" x="16.95" y="24.63" width="0.46" height="4.6"/><rect class="cls-1" x="10.97" y="23.02" width="4.6" height="0.46"/><rect class="cls-1" x="19.03" y="23.02" width="4.6" height="0.46"/><rect class="cls-1" x="19.03" y="9.21" width="4.6" height="0.46"/><rect class="cls-1" x="25.93" y="9.21" width="4.6" height="0.46"/><rect class="cls-1" x="11.2" y="9.21" width="4.6" height="0.46"/><rect class="cls-1" x="4.53" y="9.21" width="4.6" height="0.46"/><path class="cls-1" d="M85.34,54.39a2.53,2.53,0,1,1-2.53-2.53A2.53,2.53,0,0,1,85.34,54.39Z" transform="translate(-80.29 -51.86)"/><path class="cls-1" d="M100.07,54.39a2.53,2.53,0,1,1-2.53-2.53A2.53,2.53,0,0,1,100.07,54.39Z" transform="translate(-80.29 -51.86)"/><path class="cls-1" d="M114.79,54.39a2.53,2.53,0,1,1-2.52-2.53A2.52,2.52,0,0,1,114.79,54.39Z" transform="translate(-80.29 -51.86)"/><path class="cls-1" d="M85.34,61.29a2.53,2.53,0,1,1-2.53-2.52A2.53,2.53,0,0,1,85.34,61.29Z" transform="translate(-80.29 -51.86)"/><path class="cls-1" d="M92.7,61.29a2.53,2.53,0,1,1-2.52-2.52A2.52,2.52,0,0,1,92.7,61.29Z" transform="translate(-80.29 -51.86)"/><path class="cls-1" d="M100.07,61.29a2.53,2.53,0,1,1-2.53-2.52A2.53,2.53,0,0,1,100.07,61.29Z" transform="translate(-80.29 -51.86)"/><path class="cls-1" d="M107.43,61.29a2.53,2.53,0,1,1-2.53-2.52A2.53,2.53,0,0,1,107.43,61.29Z" transform="translate(-80.29 -51.86)"/><path class="cls-1" d="M114.79,61.29a2.53,2.53,0,1,1-2.52-2.52A2.52,2.52,0,0,1,114.79,61.29Z" transform="translate(-80.29 -51.86)"/><path class="cls-1" d="M92.7,68.2a2.53,2.53,0,1,1-2.52-2.53A2.53,2.53,0,0,1,92.7,68.2Z" transform="translate(-80.29 -51.86)"/><path class="cls-1" d="M107.43,68.2a2.53,2.53,0,1,1-2.53-2.53A2.53,2.53,0,0,1,107.43,68.2Z" transform="translate(-80.29 -51.86)"/><path class="cls-1" d="M92.7,75.1a2.53,2.53,0,1,1-2.52-2.52A2.52,2.52,0,0,1,92.7,75.1Z" transform="translate(-80.29 -51.86)"/><path class="cls-1" d="M100.07,75.1a2.53,2.53,0,1,1-2.53-2.52A2.53,2.53,0,0,1,100.07,75.1Z" transform="translate(-80.29 -51.86)"/><path class="cls-1" d="M107.43,75.1a2.53,2.53,0,1,1-2.53-2.52A2.53,2.53,0,0,1,107.43,75.1Z" transform="translate(-80.29 -51.86)"/><path class="cls-2" d="M100.07,82a2.53,2.53,0,1,1-2.53-2.53A2.53,2.53,0,0,1,100.07,82Z" transform="translate(-80.29 -51.86)"/><path class="cls-3" d="M92.7,54.39a2.53,2.53,0,1,1-2.52-2.53A2.52,2.52,0,0,1,92.7,54.39Z" transform="translate(-80.29 -51.86)"/><path class="cls-3" d="M107.43,54.39a2.53,2.53,0,1,1-2.53-2.53A2.53,2.53,0,0,1,107.43,54.39Z" transform="translate(-80.29 -51.86)"/><path class="cls-3" d="M85.34,68.2a2.53,2.53,0,1,1-2.53-2.53A2.53,2.53,0,0,1,85.34,68.2Z" transform="translate(-80.29 -51.86)"/><path class="cls-3" d="M100.07,68.2a2.53,2.53,0,1,1-2.53-2.53A2.53,2.53,0,0,1,100.07,68.2Z" transform="translate(-80.29 -51.86)"/><path class="cls-3" d="M114.79,68.2a2.53,2.53,0,1,1-2.52-2.53A2.53,2.53,0,0,1,114.79,68.2Z" transform="translate(-80.29 -51.86)"/><path class="cls-3" d="M85.34,75.1a2.53,2.53,0,1,1-2.53-2.52A2.53,2.53,0,0,1,85.34,75.1Z" transform="translate(-80.29 -51.86)"/><path class="cls-3" d="M114.79,75.1a2.53,2.53,0,1,1-2.52-2.52A2.52,2.52,0,0,1,114.79,75.1Z" transform="translate(-80.29 -51.86)"/><path class="cls-3" d="M85.34,82a2.53,2.53,0,1,1-2.53-2.53A2.53,2.53,0,0,1,85.34,82Z" transform="translate(-80.29 -51.86)"/><path class="cls-3" d="M92.7,82a2.53,2.53,0,1,1-2.52-2.53A2.53,2.53,0,0,1,92.7,82Z" transform="translate(-80.29 -51.86)"/><path class="cls-3" d="M107.43,82a2.53,2.53,0,1,1-2.53-2.53A2.53,2.53,0,0,1,107.43,82Z" transform="translate(-80.29 -51.86)"/><path class="cls-3" d="M114.79,82a2.53,2.53,0,1,1-2.52-2.53A2.53,2.53,0,0,1,114.79,82Z" transform="translate(-80.29 -51.86)"/></svg>