<svg xmlns="http://www.w3.org/2000/svg" viewBox="0 0 132.12 32.67"><defs><style>.cls-1{fill:#2b2e31;}.cls-2{fill:#333;}.cls-3{fill:#a5a5a5;}.cls-4{fill:#ef4136;}</style></defs><title>logo_pando_light</title><path class="cls-1" d="M123.22,14.84h7.43c3.93,0,5.94,2.5,5.94,5.66,0,3.46-2.12,6-6.29,6h-3.43v7.05h-3.65Zm3.65,8.41h3.43a2.38,2.38,0,0,0,2.59-2.61,2.31,2.31,0,0,0-2.51-2.51h-3.51Z" transform="translate(-80.29 -7.87)"/><path class="cls-1" d="M142.47,14.84h4.74l6.38,18.73h-3.87l-1.39-4.27h-7.19l-1.42,4.27H136Zm4.85,11.38-2.56-7.9-2.61,7.9Z" transform="translate(-80.29 -7.87)"/><path class="cls-1" d="M155.44,14.84h5.14l6.62,13.53V14.84h3.65V33.57h-4.79l-7-14.21V33.57h-3.65Z" transform="translate(-80.29 -7.87)"/><path class="cls-1" d="M174.2,14.84h7.24c6.13,0,9.43,4,9.43,9.2,0,5.39-3.38,9.53-9.7,9.53h-7Zm3.65,15.44h3.32c4.06,0,6-2.73,6-6.13s-1.88-6-5.88-6h-3.43Z" transform="translate(-80.29 -7.87)"/><path class="cls-1" d="M212.41,24.15c0,5.26-3.51,9.91-10.13,9.91s-10.13-4.65-10.13-9.91,3.51-9.8,10.13-9.8S212.41,19,212.41,24.15Zm-16.53,0a6.4,6.4,0,1,0,12.8,0,6.4,6.4,0,1,0-12.8,0Z" transform="translate(-80.29 -7.87)"/><rect class="cls-2" x="2.22" y="3.68" width="0.46" height="4.6"/><rect class="cls-2" x="16.95" y="3.68" width="0.46" height="4.6"/><rect class="cls-2" x="31.68" y="3.68" width="0.46" height="4.6"/><rect class="cls-2" x="24.32" y="10.59" width="0.46" height="4.6"/><rect class="cls-2" x="9.59" y="10.59" width="0.46" height="4.6"/><rect class="cls-2" x="9.59" y="17.49" width="0.46" height="4.6"/><rect class="cls-2" x="24.32" y="17.49" width="0.46" height="4.6"/><rect class="cls-2" x="16.95" y="24.63" width="0.46" height="4.6"/><rect class="cls-2" x="10.97" y="23.02" width="4.6" height="0.46"/><rect class="cls-2" x="19.03" y="23.02" width="4.6" height="0.46"/><rect class="cls-2" x="19.03" y="9.21" width="4.6" height="0.46"/><rect class="cls-2" x="25.93" y="9.21" width="4.6" height="0.46"/><rect class="cls-2" x="11.2" y="9.21" width="4.6" height="0.46"/><rect class="cls-2" x="4.53" y="9.21" width="4.6" height="0.46"/><path class="cls-2" d="M85.34,10.4a2.53,2.53,0,1,1-2.53-2.53A2.52,2.52,0,0,1,85.34,10.4Z" transform="translate(-80.29 -7.87)"/><path class="cls-3" d="M92.7,10.4a2.53,2.53,0,1,1-2.52-2.53A2.52,2.52,0,0,1,92.7,10.4Z" transform="translate(-80.29 -7.87)"/><path class="cls-2" d="M100.07,10.4a2.53,2.53,0,1,1-2.53-2.53A2.52,2.52,0,0,1,100.07,10.4Z" transform="translate(-80.29 -7.87)"/><path class="cls-3" d="M107.43,10.4a2.53,2.53,0,1,1-2.53-2.53A2.52,2.52,0,0,1,107.43,10.4Z" transform="translate(-80.29 -7.87)"/><path class="cls-2" d="M114.79,10.4a2.53,2.53,0,1,1-2.52-2.53A2.52,2.52,0,0,1,114.79,10.4Z" transform="translate(-80.29 -7.87)"/><path class="cls-2" d="M85.34,17.3a2.53,2.53,0,1,1-2.53-2.53A2.53,2.53,0,0,1,85.34,17.3Z" transform="translate(-80.29 -7.87)"/><path class="cls-2" d="M92.7,17.3a2.53,2.53,0,1,1-2.52-2.53A2.52,2.52,0,0,1,92.7,17.3Z" transform="translate(-80.29 -7.87)"/><path class="cls-2" d="M100.07,17.3a2.53,2.53,0,1,1-2.53-2.53A2.53,2.53,0,0,1,100.07,17.3Z" transform="translate(-80.29 -7.87)"/><path class="cls-2" d="M107.43,17.3a2.53,2.53,0,1,1-2.53-2.53A2.53,2.53,0,0,1,107.43,17.3Z" transform="translate(-80.29 -7.87)"/><path class="cls-2" d="M114.79,17.3a2.53,2.53,0,1,1-2.52-2.53A2.52,2.52,0,0,1,114.79,17.3Z" transform="translate(-80.29 -7.87)"/><path class="cls-3" d="M85.34,24.2a2.53,2.53,0,1,1-2.53-2.52A2.53,2.53,0,0,1,85.34,24.2Z" transform="translate(-80.29 -7.87)"/><path class="cls-2" d="M92.7,24.2a2.53,2.53,0,1,1-2.52-2.52A2.52,2.52,0,0,1,92.7,24.2Z" transform="translate(-80.29 -7.87)"/><path class="cls-3" d="M100.07,24.2a2.53,2.53,0,1,1-2.53-2.52A2.53,2.53,0,0,1,100.07,24.2Z" transform="translate(-80.29 -7.87)"/><path class="cls-2" d="M107.43,24.2a2.53,2.53,0,1,1-2.53-2.52A2.53,2.53,0,0,1,107.43,24.2Z" transform="translate(-80.29 -7.87)"/><path class="cls-3" d="M114.79,24.2a2.53,2.53,0,1,1-2.52-2.52A2.52,2.52,0,0,1,114.79,24.2Z" transform="translate(-80.29 -7.87)"/><path class="cls-3" d="M85.34,31.11a2.53,2.53,0,1,1-2.53-2.53A2.53,2.53,0,0,1,85.34,31.11Z" transform="translate(-80.29 -7.87)"/><path class="cls-2" d="M92.7,31.11a2.53,2.53,0,1,1-2.52-2.53A2.53,2.53,0,0,1,92.7,31.11Z" transform="translate(-80.29 -7.87)"/><path class="cls-2" d="M100.07,31.11a2.53,2.53,0,1,1-2.53-2.53A2.53,2.53,0,0,1,100.07,31.11Z" transform="translate(-80.29 -7.87)"/><path class="cls-2" d="M107.43,31.11a2.53,2.53,0,1,1-2.53-2.53A2.53,2.53,0,0,1,107.43,31.11Z" transform="translate(-80.29 -7.87)"/><path class="cls-3" d="M114.79,31.11a2.53,2.53,0,1,1-2.52-2.53A2.53,2.53,0,0,1,114.79,31.11Z" transform="translate(-80.29 -7.87)"/><path class="cls-3" d="M85.34,38a2.53,2.53,0,1,1-2.53-2.52A2.53,2.53,0,0,1,85.34,38Z" transform="translate(-80.29 -7.87)"/><path class="cls-3" d="M92.7,38a2.53,2.53,0,1,1-2.52-2.52A2.52,2.52,0,0,1,92.7,38Z" transform="translate(-80.29 -7.87)"/><path class="cls-4" d="M100.07,38a2.53,2.53,0,1,1-2.53-2.52A2.53,2.53,0,0,1,100.07,38Z" transform="translate(-80.29 -7.87)"/><path class="cls-3" d="M107.43,38a2.53,2.53,0,1,1-2.53-2.52A2.53,2.53,0,0,1,107.43,38Z" transform="translate(-80.29 -7.87)"/><path class="cls-3" d="M114.79,38a2.53,2.53,0,1,1-2.52-2.52A2.52,2.52,0,0,1,114.79,38Z" transform="translate(-80.29 -7.87)"/></svg>