<svg id="Layer_6" xmlns="http://www.w3.org/2000/svg" viewBox="0 0 34.51 32.67"><defs><style>.cls-1{fill:#333;}.cls-2{fill:#a5a5a5;}.cls-3{fill:#ef4136;}</style></defs><title>logo_pando</title><rect class="cls-1" x="2.22" y="3.68" width="0.46" height="4.6"/><rect class="cls-1" x="16.95" y="3.68" width="0.46" height="4.6"/><rect class="cls-1" x="31.68" y="3.68" width="0.46" height="4.6"/><rect class="cls-1" x="24.32" y="10.59" width="0.46" height="4.6"/><rect class="cls-1" x="9.59" y="10.59" width="0.46" height="4.6"/><rect class="cls-1" x="9.59" y="17.49" width="0.46" height="4.6"/><rect class="cls-1" x="24.32" y="17.49" width="0.46" height="4.6"/><rect class="cls-1" x="16.95" y="24.63" width="0.46" height="4.6"/><rect class="cls-1" x="10.97" y="23.02" width="4.6" height="0.46"/><rect class="cls-1" x="19.03" y="23.02" width="4.6" height="0.46"/><rect class="cls-1" x="19.03" y="9.21" width="4.6" height="0.46"/><rect class="cls-1" x="25.93" y="9.21" width="4.6" height="0.46"/><rect class="cls-1" x="11.2" y="9.21" width="4.6" height="0.46"/><rect class="cls-1" x="4.53" y="9.21" width="4.6" height="0.46"/><path class="cls-1" d="M85.34,10.4a2.53,2.53,0,1,1-2.53-2.53A2.52,2.52,0,0,1,85.34,10.4Z" transform="translate(-80.29 -7.87)"/><path class="cls-2" d="M92.7,10.4a2.53,2.53,0,1,1-2.52-2.53A2.52,2.52,0,0,1,92.7,10.4Z" transform="translate(-80.29 -7.87)"/><path class="cls-1" d="M100.07,10.4a2.53,2.53,0,1,1-2.53-2.53A2.52,2.52,0,0,1,100.07,10.4Z" transform="translate(-80.29 -7.87)"/><path class="cls-2" d="M107.43,10.4a2.53,2.53,0,1,1-2.53-2.53A2.52,2.52,0,0,1,107.43,10.4Z" transform="translate(-80.29 -7.87)"/><path class="cls-1" d="M114.79,10.4a2.53,2.53,0,1,1-2.52-2.53A2.52,2.52,0,0,1,114.79,10.4Z" transform="translate(-80.29 -7.87)"/><path class="cls-1" d="M85.34,17.3a2.53,2.53,0,1,1-2.53-2.53A2.53,2.53,0,0,1,85.34,17.3Z" transform="translate(-80.29 -7.87)"/><path class="cls-1" d="M92.7,17.3a2.53,2.53,0,1,1-2.52-2.53A2.52,2.52,0,0,1,92.7,17.3Z" transform="translate(-80.29 -7.87)"/><path class="cls-1" d="M100.07,17.3a2.53,2.53,0,1,1-2.53-2.53A2.53,2.53,0,0,1,100.07,17.3Z" transform="translate(-80.29 -7.87)"/><path class="cls-1" d="M107.43,17.3a2.53,2.53,0,1,1-2.53-2.53A2.53,2.53,0,0,1,107.43,17.3Z" transform="translate(-80.29 -7.87)"/><path class="cls-1" d="M114.79,17.3a2.53,2.53,0,1,1-2.52-2.53A2.52,2.52,0,0,1,114.79,17.3Z" transform="translate(-80.29 -7.87)"/><path class="cls-2" d="M85.34,24.2a2.53,2.53,0,1,1-2.53-2.52A2.53,2.53,0,0,1,85.34,24.2Z" transform="translate(-80.29 -7.87)"/><path class="cls-1" d="M92.7,24.2a2.53,2.53,0,1,1-2.52-2.52A2.52,2.52,0,0,1,92.7,24.2Z" transform="translate(-80.29 -7.87)"/><path class="cls-2" d="M100.07,24.2a2.53,2.53,0,1,1-2.53-2.52A2.53,2.53,0,0,1,100.07,24.2Z" transform="translate(-80.29 -7.87)"/><path class="cls-1" d="M107.43,24.2a2.53,2.53,0,1,1-2.53-2.52A2.53,2.53,0,0,1,107.43,24.2Z" transform="translate(-80.29 -7.87)"/><path class="cls-2" d="M114.79,24.2a2.53,2.53,0,1,1-2.52-2.52A2.52,2.52,0,0,1,114.79,24.2Z" transform="translate(-80.29 -7.87)"/><path class="cls-2" d="M85.34,31.11a2.53,2.53,0,1,1-2.53-2.53A2.53,2.53,0,0,1,85.34,31.11Z" transform="translate(-80.29 -7.87)"/><path class="cls-1" d="M92.7,31.11a2.53,2.53,0,1,1-2.52-2.53A2.53,2.53,0,0,1,92.7,31.11Z" transform="translate(-80.29 -7.87)"/><path class="cls-1" d="M100.07,31.11a2.53,2.53,0,1,1-2.53-2.53A2.53,2.53,0,0,1,100.07,31.11Z" transform="translate(-80.29 -7.87)"/><path class="cls-1" d="M107.43,31.11a2.53,2.53,0,1,1-2.53-2.53A2.53,2.53,0,0,1,107.43,31.11Z" transform="translate(-80.29 -7.87)"/><path class="cls-2" d="M114.79,31.11a2.53,2.53,0,1,1-2.52-2.53A2.53,2.53,0,0,1,114.79,31.11Z" transform="translate(-80.29 -7.87)"/><path class="cls-2" d="M85.34,38a2.53,2.53,0,1,1-2.53-2.52A2.53,2.53,0,0,1,85.34,38Z" transform="translate(-80.29 -7.87)"/><path class="cls-2" d="M92.7,38a2.53,2.53,0,1,1-2.52-2.52A2.52,2.52,0,0,1,92.7,38Z" transform="translate(-80.29 -7.87)"/><path class="cls-3" d="M100.07,38a2.53,2.53,0,1,1-2.53-2.52A2.53,2.53,0,0,1,100.07,38Z" transform="translate(-80.29 -7.87)"/><path class="cls-2" d="M107.43,38a2.53,2.53,0,1,1-2.53-2.52A2.53,2.53,0,0,1,107.43,38Z" transform="translate(-80.29 -7.87)"/><path class="cls-2" d="M114.79,38a2.53,2.53,0,1,1-2.52-2.52A2.52,2.52,0,0,1,114.79,38Z" transform="translate(-80.29 -7.87)"/></svg>